Coordinates
version=1
nRows=7
nColumns=33
inDegrees=yes

Units are S.I. units (second, meters, Newtons, ...)
Angles are in degrees.

endheader
time	ground_thorax_rot_x	ground_thorax_rot_y	ground_thorax_rot_z	ground_thorax_tx	ground_thorax_ty	ground_thorax_tz	clav_prot_r	clav_elev_r	scapula_abduction_r	scapula_elevation_r	scapula_upward_rot_r	scapula_winging_r	shoulder_elv_r	plane_of_elev_r	axial_rot_r	elbow_flexion_r	pro_sup_r	wrist_flex_r	wrist_dev_r	clav_prot_l	clav_elev_l	scapula_abduction_l	scapula_elevation_l	scapula_upward_rot_l	scapula_winging_l	shoulder_elv_l	plane_of_elev_l	axial_rot_l	elbow_flexion_l	pro_sup_l	wrist_flex_l	wrist_dev_l
      8.50000000	     36.22606186	     18.30481879	     20.80701761	   -248.12841852	    827.88486312	      9.16538459	     11.67077488	     37.20326936	     36.25430222	     45.00000000	    -40.19178160	   2069.43565370	  -2271.33800036	    146.38618239	   -125.94079521	   2181.36266688	    106.44792132	     11.44405652	      2.69836051	      9.02022712	    -45.00000000	    -36.18209189	     45.00000000	    -45.00000000	  -2777.78304512	    437.23549685	     21.09393314	    -55.72300240	    737.21953811	     83.97621524	     -1.79035346	    -13.80326795
      8.51000000	     36.16209287	     18.53860723	     20.90129050	   -246.87173526	    828.13934715	      9.17001573	     11.50341807	     37.20149419	     36.08657150	     45.00000000	    -39.84969413	   2069.52032983	  -2271.28882066	    146.41965642	   -126.07283463	   2181.42990105	    106.81607484	     11.44763942	      2.64275412	      9.12459153	    -45.00000000	    -36.28281435	     45.00000000	    -45.00000000	  -2777.81892677	    437.24141484	     21.22224294	    -55.43442792	    737.31873126	     84.56157076	     -1.84093949	    -13.77558246
      8.52000000	     36.20298969	     18.55550632	     20.92739316	   -245.54234425	    828.38317175	      9.17641410	     11.51028101	     37.25831158	     36.26415237	     45.00000000	    -39.64150160	   2069.51061301	  -2271.28782550	    146.40280875	   -126.13622009	   2181.48706559	    107.16073745	     11.47958863	      2.57481778	      9.08057786	    -45.00000000	    -36.28359909	     45.00000000	    -45.00000000	  -2777.90372719	    437.23689849	     21.30989136	    -55.14623632	    737.40763529	     85.16121453	     -1.88726766	    -13.76107308
      8.53000000	     36.24506484	     18.64875324	     20.91917586	   -244.13591648	    828.61097450	      9.18414864	     11.63347413	     37.34635839	     36.40740272	     45.00000000	    -39.49552820	   2069.41852920	  -2271.33184052	    146.30353262	   -126.16745838	   2181.48097740	    107.50794532	     11.50850763	      2.52195354	      9.01408025	    -45.00000000	    -36.36337396	     45.00000000	    -45.00000000	  -2778.05527082	    437.25355519	     21.37144714	    -54.86775487	    737.55823233	     85.81025313	     -1.95013942	    -13.77016060
      8.54000000	     36.25110153	     18.79811980	     21.00574738	   -242.64740183	    828.81565634	      9.19171243	     11.84159067	     37.49685332	     36.59993001	     45.00000000	    -39.33237312	   2069.31149514	  -2271.38930550	    146.29061865	   -126.18960200	   2181.52324849	    107.87166535	     11.52139446	      2.45811344	      8.84581454	    -45.00000000	    -36.41017856	     45.00000000	    -45.00000000	  -2778.21394867	    437.31958961	     21.39318234	    -54.52735685	    737.71618970	     86.55929298	     -2.01429479	    -13.76893523
      8.55000000	     36.27364108	     18.97262340	     21.09634342	   -241.07854168	    828.99084967	      9.19916524	     11.96282311	     37.59850666	     36.71973887	     45.00000000	    -39.15284767	   2069.29655074	  -2271.40237563	    146.32889302	   -126.24777184	   2181.57038916	    108.24120754	     11.54479540	      2.39045872	      8.73543292	    -45.00000000	    -36.45564343	     45.00000000	    -45.00000000	  -2778.34787116	    437.34536284	     21.43511681	    -54.22394761	    737.88244521	     87.36340393	     -2.07710732	    -13.76047133
      8.56000000	     36.26558822	     19.13964337	     21.17282549	   -239.41917899	    829.13124133	      9.20613696	     11.61585459	     37.51683798	     36.64312379	     45.00000000	    -38.85001418	   2069.35698833	  -2271.32419248	    146.27289336	   -126.39301386	   2181.59987489	    108.54996423	     11.62279264	      2.32158896	      9.06630621	    -45.00000000	    -36.48838802	     45.00000000	    -45.00000000	  -2778.39575235	    437.28165074	     21.66839034	    -53.96950587	    737.92944945	     88.04932417	     -2.11143842	    -13.74384589
